<?xml version="1.0" encoding="utf-8"?>
<!-- Generator: Adobe Illustrator 16.0.0, SVG Export Plug-In . SVG Version: 6.00 Build 0)  -->
<!DOCTYPE svg PUBLIC "-//W3C//DTD SVG 1.1//EN" "http://www.w3.org/Graphics/SVG/1.1/DTD/svg11.dtd">
<svg version="1.1" id="Layer_1" xmlns="http://www.w3.org/2000/svg" xmlns:xlink="http://www.w3.org/1999/xlink" x="0px" y="0px"
	 width="1284.416px" height="50px" viewBox="0 0 1284.416 50" enable-background="new 0 0 1284.416 50" xml:space="preserve">
<g>
	<rect x="492.563" fill="#FFFFFF" width="7.989" height="1.143"/>
</g>
<g>
	<path fill="#FFFFFF" d="M484.839,4.572h-3.428V8h-1.146V4.572h-3.43V3.43h3.43V0h1.146v3.43h3.428V4.572z"/>
</g>
<g>
	<path fill="#FFFFFF" d="M472.382,0.801L471.583,0l-3.197,3.2L465.183,0l-0.801,0.801l3.201,3.2l-3.201,3.198L465.183,8l3.203-3.2
		l3.197,3.2l0.801-0.801l-3.201-3.198L472.382,0.801z"/>
</g>
<g>
	<path fill="#FFFFFF" d="M618.373,2.367c-0.906,0.4-1.879,0.674-2.9,0.795c1.043-0.625,1.849-1.613,2.228-2.793
		c-0.98,0.578-2.063,0.999-3.207,1.225C613.566,0.611,612.253,0,610.8,0c-2.787,0-5.049,2.26-5.049,5.049
		c0,0.395,0.045,0.781,0.131,1.15c-4.195-0.211-7.916-2.221-10.406-5.275c-0.436,0.746-0.684,1.613-0.684,2.539
		c0,1.751,0.891,3.297,2.246,4.202c-0.828-0.026-1.607-0.254-2.287-0.632c0,0.021,0,0.043,0,0.062c0,2.446,1.74,4.487,4.051,4.951
		c-0.424,0.114-0.871,0.177-1.332,0.177c-0.323,0-0.641-0.031-0.948-0.09c0.646,2.008,2.514,3.467,4.723,3.508
		c-1.73,1.354-3.906,2.159-6.271,2.159c-0.403,0-0.811-0.021-1.205-0.069c2.234,1.437,4.894,2.271,7.74,2.271
		c9.287,0,14.365-7.692,14.365-14.366c0-0.218-0.004-0.437-0.018-0.652C616.839,4.27,617.695,3.38,618.373,2.367L618.373,2.367z"/>
</g>
<path fill="#FFFFFF" d="M734.554,8.75h-3.125V5.625h-2.5V8.75h-3.125v2.5h3.125v3.125h2.5V11.25h3.125 M714.554,8.125v3.9h5.451
	c-0.42,2.35-2.457,4.063-5.451,4.063c-3.299,0-5.979-2.795-5.979-6.094c0-3.301,2.682-6.088,5.979-6.088
	c1.486,0,2.818,0.514,3.869,1.512v0.006l2.818-2.818C719.511,0.993,717.253,0,714.554,0c-5.521,0-10,4.475-10,10
	c0,5.523,4.479,10,10,10c5.773,0,9.604-4.063,9.604-9.775c0-0.729-0.068-1.43-0.193-2.1H714.554z"/>
<g>
	<path fill="#FFFFFF" d="M635.708,0c-5.523,0-10,4.479-10,10c0,4.236,2.635,7.855,6.354,9.311c-0.089-0.789-0.166-2.004,0.032-2.867
		c0.187-0.776,1.177-4.967,1.177-4.967s-0.304-0.6-0.304-1.484c0-1.391,0.812-2.428,1.814-2.428c0.854,0,1.266,0.64,1.266,1.408
		c0,0.857-0.545,2.139-0.828,3.328c-0.229,0.996,0.498,1.812,1.48,1.812c1.772,0,3.145-1.875,3.145-4.583
		c0-2.395-1.721-4.067-4.178-4.067c-2.846,0-4.516,2.136-4.516,4.34c0,0.859,0.328,1.781,0.739,2.281
		c0.082,0.101,0.099,0.187,0.068,0.287c-0.076,0.313-0.244,0.996-0.277,1.135c-0.043,0.188-0.145,0.226-0.334,0.136
		c-1.247-0.58-2.024-2.41-2.024-3.875c0-3.154,2.293-6.054,6.604-6.054c3.474,0,6.164,2.474,6.164,5.776
		c0,3.448-2.172,6.221-5.188,6.221c-1.021,0-1.969-0.523-2.293-1.146c0,0-0.5,1.905-0.623,2.375
		c-0.23,0.867-0.834,1.957-1.242,2.623c0.936,0.287,1.93,0.442,2.961,0.442c5.521,0,10-4.479,10-10
		C645.708,4.482,641.23,0,635.708,0z"/>
</g>
<path fill="#FFFFFF" d="M688.347,20v-9.123h3.064l0.459-3.559h-3.521V5.051c0-1.027,0.285-1.729,1.767-1.729h1.881V0.139
	C691.664,0.098,690.548,0,689.25,0c-2.717,0-4.574,1.656-4.574,4.699v2.619h-3.065v3.559h3.065V20H688.347z"/>
<g>
	<path fill="#FFFFFF" d="M764.726,20c0.572,0,1.068-0.189,1.49-0.563l-7.211-7.211c-0.174,0.125-0.342,0.244-0.5,0.359
		c-0.541,0.396-0.979,0.707-1.311,0.933c-0.343,0.225-0.785,0.446-1.351,0.684c-0.559,0.23-1.078,0.348-1.561,0.348h-0.027
		c-0.479,0-1.004-0.113-1.563-0.348c-0.563-0.233-1.013-0.459-1.347-0.684c-0.336-0.226-0.77-0.533-1.313-0.933
		c-0.15-0.111-0.316-0.232-0.498-0.361l-7.213,7.213c0.422,0.373,0.918,0.563,1.49,0.563H764.726z"/>
	<path fill="#FFFFFF" d="M742.98,7.686c-0.541-0.359-1.021-0.771-1.438-1.235v10.973l6.354-6.356
		C746.628,10.177,744.99,9.051,742.98,7.686L742.98,7.686z"/>
	<path fill="#FFFFFF" d="M765.58,7.686c-1.936,1.311-3.58,2.437-4.934,3.381L767,17.422V6.449
		C766.593,6.902,766.119,7.314,765.58,7.686L765.58,7.686z"/>
	<path fill="#FFFFFF" d="M764.726,0H743.82c-0.729,0-1.291,0.246-1.688,0.738c-0.393,0.492-0.59,1.105-0.59,1.848
		c0,0.596,0.262,1.242,0.781,1.938c0.52,0.697,1.071,1.244,1.662,1.642c0.315,0.228,1.293,0.901,2.907,2.024
		c0.875,0.605,1.64,1.136,2.289,1.591c0.562,0.388,1.035,0.723,1.438,1.002c0.045,0.03,0.115,0.084,0.211,0.149
		c0.102,0.073,0.229,0.168,0.393,0.283c0.313,0.223,0.564,0.402,0.771,0.539c0.205,0.139,0.451,0.291,0.74,0.463
		c0.282,0.17,0.561,0.299,0.813,0.383c0.256,0.086,0.492,0.127,0.711,0.127h0.027c0.217,0,0.455-0.041,0.711-0.127
		c0.256-0.084,0.522-0.209,0.813-0.383c0.289-0.172,0.535-0.324,0.738-0.463c0.205-0.137,0.461-0.316,0.771-0.539
		c0.151-0.115,0.286-0.21,0.391-0.283c0.096-0.065,0.168-0.119,0.213-0.149c0.313-0.216,0.789-0.55,1.438-1
		c1.182-0.817,2.909-2.021,5.211-3.617c0.688-0.481,1.271-1.065,1.729-1.746C766.767,3.736,767,3.02,767,2.273
		c0-0.625-0.225-1.16-0.676-1.607C765.876,0.223,765.343,0,764.726,0L764.726,0z"/>
</g>
<g>
	<path fill="#FFFFFF" d="M865.908,24c0.686,0,1.281-0.229,1.787-0.676l-8.652-8.652c-0.209,0.15-0.41,0.293-0.6,0.432
		c-0.65,0.478-1.177,0.851-1.574,1.117c-0.406,0.271-0.941,0.537-1.615,0.818c-0.67,0.279-1.295,0.416-1.873,0.416h-0.033
		c-0.577,0-1.205-0.137-1.875-0.416c-0.672-0.281-1.209-0.551-1.606-0.818c-0.402-0.27-0.933-0.641-1.576-1.117
		c-0.182-0.133-0.381-0.276-0.6-0.434l-8.654,8.654c0.506,0.447,1.102,0.676,1.789,0.676H865.908z"/>
	<path fill="#FFFFFF" d="M839.813,9.223c-0.646-0.432-1.224-0.926-1.726-1.482v13.166l7.629-7.627
		C844.189,12.211,842.224,10.861,839.813,9.223L839.813,9.223z"/>
	<path fill="#FFFFFF" d="M866.931,9.223c-2.317,1.572-4.295,2.924-5.92,4.057l7.625,7.627V7.739
		C868.148,8.283,867.578,8.777,866.931,9.223L866.931,9.223z"/>
	<path fill="#FFFFFF" d="M865.908,0H840.82c-0.875,0-1.552,0.295-2.023,0.885c-0.471,0.592-0.707,1.327-0.707,2.219
		c0,0.715,0.314,1.49,0.939,2.326c0.623,0.836,1.289,1.492,1.992,1.969c0.387,0.271,1.553,1.082,3.493,2.431
		c1.054,0.726,1.964,1.36,2.746,1.907c0.67,0.466,1.242,0.867,1.724,1.201c0.055,0.037,0.139,0.104,0.254,0.185
		c0.121,0.086,0.276,0.198,0.471,0.338c0.373,0.271,0.676,0.479,0.922,0.646c0.246,0.168,0.539,0.352,0.888,0.559
		c0.346,0.205,0.676,0.355,0.979,0.459c0.307,0.104,0.592,0.15,0.854,0.15h0.03c0.263,0,0.547-0.049,0.855-0.15
		c0.307-0.104,0.633-0.254,0.979-0.459c0.345-0.207,0.646-0.391,0.886-0.559c0.245-0.164,0.557-0.379,0.926-0.646
		c0.188-0.14,0.348-0.252,0.469-0.338c0.115-0.08,0.203-0.146,0.256-0.185c0.371-0.258,0.947-0.655,1.729-1.196
		c1.412-0.98,3.492-2.427,6.254-4.341c0.824-0.578,1.52-1.278,2.074-2.096c0.559-0.82,0.838-1.679,0.838-2.574
		c0-0.75-0.271-1.393-0.814-1.929C867.289,0.268,866.648,0,865.908,0L865.908,0z"/>
</g>
<g>
	<path fill="#FFFFFF" d="M508.257,14.588l7.299-7.088l-7.299-7.09l0.4-0.41l7.723,7.5l-7.723,7.5L508.257,14.588z"/>
</g>
<g>
	<rect x="527.769" y="1" fill="#FFFFFF" width="25" height="3"/>
	<rect x="527.769" y="10.5" fill="#FFFFFF" width="25" height="3"/>
	<rect x="527.769" y="20" fill="#FFFFFF" width="25" height="3"/>
</g>
<polygon fill="#FFFFFF" points="562.183,0 572.183,6 562.183,12 "/>
<g>
	<path fill="#FFFFFF" d="M29.533,2.841c-1.087,0.481-2.254,0.808-3.48,0.954c1.251-0.75,2.212-1.938,2.664-3.352
		c-1.171,0.692-2.468,1.197-3.848,1.47C23.764,0.734,22.189,0,20.446,0c-3.346,0-6.059,2.713-6.059,6.059
		c0,0.476,0.053,0.938,0.157,1.381c-5.035-0.252-9.5-2.664-12.488-6.33c-0.522,0.896-0.82,1.937-0.82,3.047
		c0,2.102,1.07,3.955,2.695,5.043C2.938,9.167,2.003,8.895,1.187,8.44c0,0.025,0,0.052,0,0.076c0,2.937,2.089,5.384,4.861,5.941
		c-0.51,0.139-1.045,0.213-1.598,0.213c-0.391,0-0.771-0.038-1.14-0.109c0.771,2.408,3.009,4.16,5.66,4.209
		c-2.073,1.625-4.686,2.598-7.525,2.598c-0.489,0-0.972-0.028-1.445-0.084C2.681,22.997,5.866,24,9.288,24
		c11.145,0,17.239-9.232,17.239-17.239c0-0.263-0.006-0.521-0.017-0.782C27.693,5.123,28.72,4.057,29.533,2.841L29.533,2.841z"/>
</g>
<path fill="#FFFFFF" d="M274.591,10.5h-3.75V6.75h-3v3.75h-3.75v3h3.75v3.75h3V13.5h3.75 M250.591,9.75v4.68h6.541
	c-0.503,2.82-2.948,4.875-6.541,4.875c-3.959,0-7.177-3.353-7.177-7.312s3.218-7.306,7.177-7.306c1.784,0,3.383,0.615,4.642,1.814
	V6.51l3.383-3.383C256.539,1.191,253.831,0,250.591,0c-6.63,0-12,5.37-12,12s5.37,12,12,12c6.93,0,11.52-4.875,11.52-11.73
	c0-0.877-0.082-1.717-0.232-2.52H250.591z"/>
<g>
	<path fill="#FFFFFF" d="M122.501,0h17.839c1.695,0,3.081,1.254,3.081,3.08v17.84c0,1.826-1.386,3.08-3.081,3.08h-17.839
		c-1.695,0-3.081-1.254-3.081-3.08V3.08C119.42,1.254,120.806,0,122.501,0L122.501,0z M136.903,2.666
		c-0.594,0-1.08,0.486-1.08,1.081v2.587c0,0.594,0.486,1.08,1.08,1.08h2.714c0.593,0,1.079-0.486,1.079-1.08V3.747
		c0-0.595-0.486-1.081-1.079-1.081H136.903z M140.708,10.148h-2.113c0.2,0.652,0.308,1.345,0.308,2.06
		c0,3.992-3.34,7.229-7.46,7.229c-4.119,0-7.46-3.237-7.46-7.229c0-0.715,0.108-1.406,0.308-2.06h-2.203v10.139
		c0,0.525,0.429,0.955,0.955,0.955h16.711c0.526,0,0.954-0.43,0.954-0.955V10.148L140.708,10.148z M131.443,7.277
		c-2.662,0-4.819,2.091-4.819,4.671c0,2.579,2.158,4.671,4.819,4.671c2.662,0,4.82-2.092,4.82-4.671
		C136.263,9.368,134.106,7.277,131.443,7.277L131.443,7.277z"/>
</g>
<g>
	<path fill="#FFFFFF" d="M48.854,0c-6.628,0-12,5.373-12,12c0,5.084,3.163,9.426,7.626,11.174c-0.104-0.949-0.2-2.404,0.042-3.441
		c0.218-0.938,1.407-5.965,1.407-5.965s-0.359-0.719-0.359-1.781c0-1.668,0.967-2.914,2.171-2.914c1.023,0,1.519,0.769,1.519,1.688
		c0,1.029-0.655,2.568-0.994,3.995c-0.283,1.194,0.598,2.169,1.776,2.169c2.133,0,3.773-2.249,3.773-5.494
		c0-2.873-2.065-4.883-5.014-4.883c-3.414,0-5.418,2.561-5.418,5.207c0,1.031,0.398,2.142,0.893,2.738
		c0.099,0.118,0.113,0.223,0.083,0.345c-0.091,0.379-0.293,1.194-0.333,1.361c-0.052,0.22-0.173,0.266-0.401,0.156
		c-1.499-0.694-2.436-2.891-2.436-4.646c0-3.785,2.751-7.262,7.93-7.262c4.163,0,7.397,2.967,7.397,6.931
		c0,4.14-2.607,7.465-6.227,7.465c-1.216,0-2.359-0.632-2.75-1.378c0,0-0.602,2.291-0.748,2.854
		c-0.271,1.043-1.002,2.351-1.492,3.146C46.424,23.813,47.617,24,48.854,24c6.627,0,12-5.373,12-12S55.482,0,48.854,0z"/>
</g>
<g>
	<path fill="#FFFFFF" d="M172.458,1.32c-0.88-0.881-1.94-1.32-3.18-1.32h-15c-1.239,0-2.299,0.439-3.18,1.32
		c-0.88,0.88-1.32,1.939-1.32,3.18v15c0,1.239,0.44,2.299,1.32,3.18c0.88,0.881,1.94,1.32,3.18,1.32h15
		c1.239,0,2.299-0.439,3.18-1.32c0.88-0.881,1.32-1.938,1.32-3.18v-15C173.778,3.261,173.337,2.2,172.458,1.32L172.458,1.32z
		 M159.715,14.344c-0.646,0.646-1.427,0.969-2.344,0.969s-1.698-0.318-2.344-0.969c-0.646-0.646-0.969-1.428-0.969-2.344
		c0-0.917,0.323-1.698,0.969-2.344c0.646-0.646,1.427-0.969,2.344-0.969s1.698,0.322,2.344,0.969
		c0.646,0.646,0.969,1.427,0.969,2.344C160.684,12.916,160.361,13.698,159.715,14.344L159.715,14.344z M168.527,14.344
		c-0.645,0.646-1.426,0.969-2.343,0.969s-1.698-0.318-2.344-0.969c-0.646-0.646-0.969-1.428-0.969-2.344
		c0-0.917,0.323-1.698,0.969-2.344c0.646-0.646,1.427-0.969,2.344-0.969s1.698,0.322,2.343,0.969c0.646,0.646,0.97,1.427,0.97,2.344
		C169.497,12.916,169.173,13.698,168.527,14.344L168.527,14.344z"/>
</g>
<g>
	<path fill="#FFFFFF" d="M191.008,0c-6.628,0-12.001,5.374-12.001,12.002S184.38,24,191.008,24c6.625,0,11.999-5.37,11.999-11.998
		S197.633,0,191.008,0L191.008,0z M186.579,15.532c-1.951,0-3.528-1.582-3.528-3.534c0-1.946,1.577-3.528,3.528-3.528
		c1.949,0,3.53,1.582,3.53,3.528C190.108,13.95,188.527,15.532,186.579,15.532L186.579,15.532z M195.435,15.532
		c-1.949,0-3.53-1.582-3.53-3.534c0-1.946,1.581-3.528,3.53-3.528c1.951,0,3.528,1.582,3.528,3.528
		C198.963,13.95,197.386,15.532,195.435,15.532L195.435,15.532z"/>
</g>
<g>
	<path fill="#FFFFFF" d="M231.971,11.428c-0.092,0.066-0.185,0.129-0.277,0.191V2.332c0-1.289-0.969-2.332-2.163-2.332h-16.826
		c-1.193,0-2.163,1.043-2.163,2.332v9.295c-0.096-0.064-0.192-0.131-0.289-0.199c-0.717-0.5-1.187,0.182-0.747,0.831
		c0.854,1.048,2.482,2.351,4.976,3.374c-2.639,8.988,6.44,10.416,6.301,5.809c0,0.086,0.005-2.612,0.009-4.528
		c0.238,0.057,0.445,0.106,0.639,0.155c0.005,1.902,0.009,4.457,0.009,4.373c-0.139,4.607,8.945,3.185,6.301-5.809
		c2.494-1.023,4.121-2.326,4.976-3.374C233.158,11.609,232.688,10.928,231.971,11.428L231.971,11.428z M223.013,13.718
		c-1.11-0.056-1.522,0.423-1.576,1.158c-0.268-0.19-0.54-0.417-0.821-0.677c-0.046-0.044-0.09-0.083-0.133-0.118
		c-0.244-0.256-0.646-0.396-1.271-0.363c-1.487,0.046-4.212,0.343-7.385-1.321V3.385c0-1.632,0.416-2.145,1.91-2.145h14.892
		c1.416,0,1.916,0.609,1.916,2.145v8.938C227.309,14.07,224.524,13.766,223.013,13.718L223.013,13.718z"/>
	<path fill="#FFFFFF" d="M224.641,7.205c-1.597,0-2.893,1.21-2.893,2.705c0,1.494,1.296,2.704,2.893,2.704
		c1.596,0,2.892-1.21,2.892-2.704C227.532,8.415,226.237,7.205,224.641,7.205L224.641,7.205z"/>
	<path fill="#FFFFFF" d="M220.802,9.91c0,1.494-1.294,2.704-2.892,2.704c-1.597,0-2.891-1.21-2.891-2.704
		c0-1.494,1.294-2.705,2.891-2.705C219.507,7.205,220.802,8.416,220.802,9.91L220.802,9.91z"/>
</g>
<path fill="#FFFFFF" d="M103.992,24V13.053h3.673l0.55-4.27h-4.224v-2.72c0-1.234,0.342-2.078,2.114-2.078h2.258V0.167
	c-0.392-0.05-1.73-0.167-3.29-0.167c-3.259,0-5.49,1.986-5.49,5.639v3.146h-3.682v4.271h3.682V24H103.992z"/>
<g>
	<g>
		<path fill="#FFFFFF" d="M411.667,16.398l2.833,2.063l-1.072-3.361l2.832-1.988h-3.439l-1.147-3.445l-1.146,3.445h-3.445
			l2.834,1.988l-1.073,3.361L411.667,16.398z"/>
	</g>
	<g>
		<path fill="#FFFFFF" d="M423.199,0h-23.243c-0.875,0-1.587,0.712-1.587,1.588v20.824c0,0.875,0.712,1.588,1.587,1.588h23.243
			c0.875,0,1.588-0.713,1.588-1.588V1.588C424.787,0.713,424.074,0,423.199,0L423.199,0z M418.412,2.666
			c0-0.324,0.263-0.586,0.587-0.586h0.586c0.324,0,0.587,0.262,0.587,0.586V3.33c0,0.324-0.263,0.586-0.587,0.586h-0.586
			c-0.324,0-0.587-0.262-0.587-0.586V2.666z M415.688,2.666c0-0.324,0.268-0.586,0.592-0.586h0.586c0.317,0,0.586,0.262,0.586,0.586
			V3.33c0,0.324-0.269,0.586-0.586,0.586h-0.586c-0.324,0-0.592-0.262-0.592-0.586V2.666z M422.882,22.095h-22.604V5.678h22.604
			V22.095L422.882,22.095z M422.896,3.33c0,0.324-0.268,0.586-0.592,0.586h-0.586c-0.318,0-0.586-0.262-0.586-0.586V2.666
			c0-0.324,0.268-0.586,0.586-0.586h0.586c0.324,0,0.592,0.262,0.592,0.586V3.33z"/>
	</g>
</g>
<path fill="#FFFFFF" d="M364.354,22.072l-6.822-6.823c1.19-1.593,1.907-3.563,1.907-5.707c0-5.269-4.271-9.542-9.545-9.542
	c-5.268,0-9.54,4.273-9.54,9.542c0,5.271,4.272,9.543,9.541,9.543c2.146,0,4.112-0.717,5.706-1.909L362.425,24L364.354,22.072z
	 M341.716,9.542c0-4.51,3.668-8.179,8.179-8.179c4.514,0,8.182,3.669,8.182,8.179c0,4.511-3.668,8.181-8.182,8.181
	C345.384,17.723,341.716,14.053,341.716,9.542"/>
<g>
	<path fill="#FFFFFF" d="M384.984,15.719c1.254-1.646,2.01-3.695,2.01-5.924c0.003-5.4-4.391-9.795-9.793-9.795
		c-5.403,0-9.795,4.395-9.795,9.795s4.396,9.796,9.795,9.796c2.291,0,4.395-0.795,6.063-2.116L389.788,24l1.74-1.74L384.984,15.719z
		 M377.201,17.386c-4.188,0-7.588-3.403-7.588-7.591c0-4.186,3.399-7.59,7.588-7.59c4.187,0,7.591,3.404,7.591,7.59
		C384.792,13.98,381.388,17.386,377.201,17.386L377.201,17.386z"/>
</g>
<g>
	<path fill="#FFFFFF" d="M318.814,14.63c1.801-0.933,3.585-1.858,5.386-2.792c-1.81-0.943-3.591-1.874-5.386-2.813V14.63z"/>
	<path fill="#FFFFFF" d="M321.001,0C314.373,0,309,5.372,309,12.001C309,18.628,314.373,24,321.001,24
		C327.628,24,333,18.628,333,12.001C333,5.372,327.628,0,321.001,0L321.001,0z M329.177,16.006c-0.208,0.9-0.941,1.564-1.832,1.664
		c-2.102,0.235-4.228,0.236-6.345,0.235c-2.117,0.001-4.244,0-6.346-0.235c-0.891-0.1-1.623-0.764-1.831-1.664
		c-0.296-1.283-0.296-2.686-0.296-4.005c0-1.321,0.004-2.724,0.299-4.007c0.207-0.9,0.941-1.564,1.832-1.664
		c2.101-0.235,4.228-0.236,6.345-0.235c2.117-0.001,4.244,0,6.345,0.235c0.892,0.1,1.625,0.764,1.833,1.664
		c0.296,1.283,0.292,2.686,0.292,4.007C329.473,13.32,329.472,14.723,329.177,16.006L329.177,16.006z"/>
</g>
<g>
	<path fill="#FFFFFF" d="M300.451,12.15c-0.248-1.077-1.129-1.873-2.189-1.99c-2.512-0.281-5.056-0.282-7.586-0.281
		c-2.532-0.001-5.075,0-7.588,0.281c-1.06,0.119-1.941,0.914-2.189,1.99c-0.353,1.536-0.357,3.209-0.357,4.79
		c0,1.582,0,3.26,0.353,4.791c0.249,1.076,1.129,1.871,2.19,1.988c2.512,0.28,5.054,0.282,7.586,0.28
		c2.532,0.002,5.076,0,7.586-0.28c1.062-0.117,1.942-0.912,2.19-1.988c0.354-1.531,0.354-3.211,0.354-4.791
		C300.802,15.359,300.805,13.686,300.451,12.15L300.451,12.15z M286.322,13.34h-1.467v7.793h-1.362V13.34h-1.44v-1.275h4.271
		L286.322,13.34L286.322,13.34z M290.021,21.133h-1.226v-0.738c-0.487,0.563-0.948,0.83-1.398,0.83c-0.396,0-0.667-0.16-0.79-0.502
		c-0.066-0.205-0.107-0.522-0.107-1.004v-5.344h1.224v4.975c0,0.287,0,0.438,0.01,0.479c0.03,0.188,0.123,0.286,0.287,0.286
		c0.246,0,0.503-0.188,0.774-0.573v-5.164h1.226V21.133L290.021,21.133z M294.672,19.104c0,0.625-0.042,1.076-0.124,1.36
		c-0.163,0.504-0.491,0.761-0.979,0.761c-0.436,0-0.855-0.242-1.265-0.748v0.655h-1.224v-9.069h1.224v2.962
		c0.396-0.485,0.815-0.731,1.265-0.731c0.487,0,0.815,0.256,0.979,0.763c0.083,0.271,0.124,0.719,0.124,1.358V19.104z
		 M299.292,17.979h-2.448v1.197c0,0.623,0.205,0.938,0.626,0.938c0.302,0,0.479-0.164,0.547-0.491
		c0.011-0.064,0.027-0.338,0.027-0.83h1.248v0.182c0,0.396-0.015,0.666-0.026,0.787c-0.041,0.271-0.137,0.521-0.285,0.732
		c-0.338,0.49-0.842,0.73-1.48,0.73c-0.641,0-1.129-0.229-1.481-0.689c-0.26-0.338-0.394-0.871-0.394-1.59V16.58
		c0-0.723,0.118-1.25,0.378-1.594c0.354-0.461,0.841-0.691,1.467-0.691c0.614,0,1.104,0.23,1.444,0.691
		c0.257,0.344,0.379,0.871,0.379,1.594L299.292,17.979L299.292,17.979z"/>
	<path fill="#FFFFFF" d="M297.458,15.396c-0.409,0-0.614,0.312-0.614,0.937v0.626h1.225v-0.626
		C298.068,15.707,297.864,15.396,297.458,15.396L297.458,15.396z"/>
	<path fill="#FFFFFF" d="M292.916,15.396c-0.202,0-0.407,0.095-0.611,0.297v4.119c0.204,0.203,0.41,0.301,0.611,0.301
		c0.353,0,0.532-0.301,0.532-0.912v-2.885C293.448,15.707,293.269,15.396,292.916,15.396L292.916,15.396z"/>
	<path fill="#FFFFFF" d="M293.599,9.256c0.451,0,0.92-0.273,1.413-0.837v0.744h1.238V2.334h-1.238v5.221
		c-0.271,0.387-0.534,0.578-0.781,0.578c-0.167,0-0.264-0.098-0.291-0.291c-0.014-0.04-0.014-0.189-0.014-0.479V2.334h-1.234v5.4
		c0,0.481,0.042,0.809,0.11,1.016C292.926,9.096,293.2,9.256,293.599,9.256L293.599,9.256z"/>
	<path fill="#FFFFFF" d="M284.984,5.451v3.712h1.373V5.451L288.007,0h-1.387l-0.937,3.598L284.71,0h-1.444
		c0.289,0.85,0.59,1.704,0.879,2.555C284.586,3.831,284.86,4.795,284.984,5.451L284.984,5.451z"/>
	<path fill="#FFFFFF" d="M289.846,9.256c0.62,0,1.102-0.232,1.443-0.697c0.26-0.344,0.384-0.881,0.384-1.607V4.561
		c0-0.729-0.124-1.264-0.384-1.608c-0.341-0.468-0.823-0.701-1.443-0.701c-0.617,0-1.097,0.233-1.44,0.701
		c-0.264,0.345-0.388,0.879-0.388,1.608v2.392c0,0.728,0.124,1.264,0.388,1.606C288.748,9.023,289.229,9.256,289.846,9.256
		L289.846,9.256z M289.255,4.313c0-0.631,0.192-0.946,0.591-0.946c0.399,0,0.59,0.315,0.59,0.946v2.873
		c0,0.631-0.191,0.948-0.59,0.948c-0.398,0-0.591-0.317-0.591-0.948V4.313z"/>
</g>
<path fill="#FFFFFF" d="M660.966,13.229c-0.521,2.754-1.166,5.396-3.063,6.771c-0.586-4.162,0.856-7.287,1.528-10.605
	c-1.145-1.929,0.144-5.813,2.56-4.855c2.975,1.177-2.576,7.173,1.146,7.923c3.896,0.781,5.479-6.751,3.066-9.2
	c-3.484-3.537-10.146-0.08-9.326,4.983c0.199,1.237,1.479,1.614,0.51,3.321c-2.229-0.494-2.896-2.254-2.811-4.6
	c0.139-3.839,3.449-6.527,6.77-6.9c4.201-0.471,8.146,1.543,8.689,5.496c0.613,4.459-1.896,9.291-6.389,8.943
	C662.431,14.411,661.921,13.809,660.966,13.229L660.966,13.229z"/>
<path fill="#FFFFFF" d="M76.309,15.873c-0.63,3.305-1.398,6.472-3.68,8.127c-0.703-4.995,1.034-8.745,1.842-12.727
	c-1.376-2.314,0.165-6.975,3.065-5.826c3.569,1.412-3.091,8.604,1.38,9.507c4.67,0.938,6.574-8.101,3.68-11.04
	c-4.182-4.245-12.176-0.098-11.191,5.98c0.238,1.484,1.771,1.937,0.612,3.986c-2.678-0.595-3.476-2.705-3.374-5.52
	c0.166-4.607,4.141-7.834,8.127-8.28c5.041-0.565,9.773,1.851,10.426,6.593c0.736,5.354-2.273,11.15-7.666,10.733
	C78.068,17.293,77.455,16.568,76.309,15.873L76.309,15.873z"/>
<g>
	<path fill="#FFFFFF" d="M434.236,0c-1.938,0-3.506,1.574-3.506,3.504C430.73,5.427,432.3,7,434.236,7
		c1.919,0,3.494-1.573,3.494-3.496C437.73,1.574,436.156,0,434.236,0L434.236,0z M455.232,0c-1.929,0-3.494,1.574-3.494,3.504
		c0,1.923,1.565,3.496,3.494,3.496c1.924,0,3.504-1.573,3.504-3.496C458.736,1.574,457.156,0,455.232,0L455.232,0z M444.729,0
		c-1.923,0-3.49,1.574-3.49,3.504c0,1.923,1.567,3.496,3.49,3.496c1.936,0,3.508-1.573,3.508-3.496
		C448.232,1.574,446.66,0,444.729,0L444.729,0z"/>
</g>
<g>
	<path fill="#FFFFFF" d="M579.927,0l4,4l4-4H579.927z"/>
</g>
<g>
	<path fill="#FFFFFF" d="M794.544,20h-20.229c-0.351,0-0.634-0.283-0.634-0.633V4.212c0-0.351,0.283-0.633,0.634-0.633h6.678
		c0.348,0,0.631,0.282,0.631,0.633s-0.283,0.633-0.631,0.633h-6.043v13.892h18.967V4.845h-6.043c-0.353,0-0.631-0.282-0.631-0.633
		s0.278-0.633,0.631-0.633h6.674c0.35,0,0.633,0.282,0.633,0.633v15.155C795.175,19.717,794.892,20,794.544,20L794.544,20z"/>
	<path fill="#FFFFFF" d="M784.429,16.059c-0.162,0-0.319-0.062-0.442-0.186l-3.902-3.903c-0.248-0.247-0.248-0.646,0-0.895
		c0.246-0.248,0.646-0.247,0.893,0l2.824,2.823V0.632c0-0.35,0.283-0.633,0.633-0.633c0.353,0,0.634,0.283,0.634,0.633v13.222
		l2.825-2.783c0.248-0.243,0.646-0.241,0.896,0.007c0.244,0.246,0.244,0.646-0.002,0.893l-3.902,3.903
		C784.751,15.996,784.591,16.059,784.429,16.059L784.429,16.059z"/>
</g>
<g>
	<path fill="#FFFFFF" d="M811.5,18l-9.27-9l9.27-9l0.479,0.493L803.222,9l8.759,8.506L811.5,18z"/>
</g>
<g>
	<path fill="#FFFFFF" d="M820.688,17.506L829.447,9l-8.76-8.507L821.167,0l9.271,9l-9.271,9L820.688,17.506z"/>
</g>
<g>
	<path fill="#FFFFFF" d="M934.792,15.533c1.01-2.041,1.393-4.413,0.922-6.821c-1.135-5.833-6.803-9.649-12.639-8.511
		c-5.832,1.14-9.65,6.811-8.513,12.644c1.142,5.829,6.813,9.649,12.644,8.511c2.471-0.484,4.578-1.781,6.102-3.563l6.25,4.209
		l1.513-2.248L934.792,15.533z M926.744,18.973c-4.523,0.883-8.912-2.07-9.795-6.595c-0.885-4.519,2.067-8.913,6.594-9.796
		c4.521-0.883,8.916,2.075,9.799,6.594C934.224,13.695,931.263,18.09,926.744,18.973L926.744,18.973z"/>
</g>
<g>
	<g>
		<rect x="879.818" y="0.5" fill="#FFFFFF" width="25" height="4"/>
		<rect x="879.818" y="8.5" fill="#FFFFFF" width="25" height="4"/>
		<rect x="879.818" y="16.5" fill="#FFFFFF" width="25" height="4"/>
	</g>
</g>
<g>
	
		<rect x="946.567" y="8.268" transform="matrix(-0.7071 0.7071 -0.7071 -0.7071 1644.499 -660.6234)" fill="#FFFFFF" width="24.998" height="4.001"/>
	
		<rect x="946.55" y="8.255" transform="matrix(-0.7071 -0.7071 0.7071 -0.7071 1629.9481 695.6569)" fill="#FFFFFF" width="24.999" height="4"/>
</g>
<g>
	<g>
		<path fill="#FFFFFF" d="M990.738,7.682v4.559h-3.289V7.682h-4.394V4.561h4.394V0h3.289v4.561h4.391v3.121H990.738z"/>
	</g>
</g>
<g>
	<path fill="#FFFFFF" d="M1003.179,3.288V0h12.142v3.288H1003.179z"/>
</g>
<g>
	<path fill="#FFC627" d="M1129.83,0c-3.865,0-7,3.135-7,7s3.135,7,7,7s7-3.135,7-7S1133.695,0,1129.83,0L1129.83,0z M1130.83,12.67
		V9.053h-2v3.617c-2-0.27-4.402-2.617-4.67-4.617h2.67v-2h-2.67c0.268-2,2.67-4.455,4.67-4.723v2.723h2V1.33
		c2,0.27,4.4,2.723,4.67,4.723h-2.67v2h2.67C1135.23,10.053,1132.83,12.4,1130.83,12.67L1130.83,12.67z"/>
</g>
<g>
	<path fill="#FFC627" d="M1111.16,0h-10c-1.65,0-3,1.356-3,3.006v6c0,1.65,1.35,2.994,3,2.994h10c1.647,0,3-1.344,3-2.994v-6
		C1114.16,1.356,1112.811,0,1111.16,0L1111.16,0z M1104.16,10.006v-8l5,4L1104.16,10.006z"/>
</g>
<g>
	<path fill="#FFC627" d="M1087.242,2.397c-0.392-0.389-0.781-0.338-1.334-0.338h-1.75l-0.396-1.309
		c-0.1-0.256-0.281-0.353-0.545-0.538c-0.262-0.184-0.531-0.153-0.807-0.153h-4.002c-0.275,0-0.545-0.153-0.81,0.03
		c-0.264,0.186-0.442,0.529-0.543,0.784l-0.396,1.186h-1.75c-0.553,0-1.105-0.051-1.496,0.338c-0.389,0.391-0.666,0.616-0.666,1.168
		v7c0,0.553,0.277,1.271,0.666,1.662c0.393,0.39,0.943,0.833,1.496,0.833h10.998c0.553,0,0.943-0.442,1.334-0.833
		c0.391-0.392,0.506-1.109,0.506-1.662v-7C1087.748,3.014,1087.632,2.789,1087.242,2.397L1087.242,2.397z M1082.882,9.54
		c-0.686,0.685-1.51,1.026-2.475,1.026c-0.963,0-1.787-0.342-2.474-1.026c-0.686-0.685-1.024-1.51-1.024-2.473
		c0-0.964,0.342-1.788,1.024-2.473c0.687-0.685,1.511-1.028,2.474-1.028c0.965,0,1.789,0.344,2.475,1.028
		c0.687,0.684,1.027,1.509,1.027,2.473C1083.91,8.03,1083.566,8.854,1082.882,9.54L1082.882,9.54z"/>
	<path fill="#FFC627" d="M1080.408,4.815c-0.619,0-1.148,0.221-1.588,0.66c-0.441,0.44-0.66,0.971-0.66,1.591
		c0,0.619,0.219,1.149,0.66,1.59c0.438,0.439,0.969,0.66,1.588,0.66c0.621,0,1.149-0.221,1.59-0.66c0.438-0.44,0.66-0.971,0.66-1.59
		c0-0.62-0.221-1.15-0.66-1.591C1081.561,5.037,1081.029,4.815,1080.408,4.815L1080.408,4.815z"/>
</g>
<path fill="#FFC627" d="M1050.634,0v13.586l5.5-3.934l5.5,3.934V0H1050.634z"/>
<polygon fill="#FFC627" points="1032.968,0 1034.705,5.349 1040.33,5.349 1035.779,8.825 1037.517,14.262 1032.968,10.999 
	1028.419,14.327 1030.16,8.815 1025.605,5.349 1031.23,5.349 "/>
<g>
	<path fill="#FFFFFF" d="M1168.492,0c-13.808,0-25,11.193-25,25c0,13.805,11.192,25,25,25c13.805,0,25-11.195,25-25
		C1193.492,11.193,1182.296,0,1168.492,0L1168.492,0z M1168.492,45.311c-11.219,0-20.313-9.094-20.313-20.311
		c0-11.219,9.095-20.314,20.313-20.314s20.313,9.096,20.313,20.314C1188.804,36.217,1179.71,45.311,1168.492,45.311L1168.492,45.311
		z M1161.916,14.061L1180.666,25l-18.75,10.936V14.061z"/>
</g>
<g>
	<path fill="#FFC627" d="M1228.133,10h-2.899l4-4h-8.101V4h8.101l-4-4h2.899l5.101,5.101L1228.133,10z"/>
</g>
<g>
	<path fill="#FFC627" d="M1208.233,12h-3.4l4.801-4.8h-9.6V4.8h9.6l-4.801-4.8h3.4l6,6L1208.233,12z"/>
</g>
<path fill="#FFC627" d="M1257.133,5.425l-5.201-5.2c-0.299-0.3-0.799-0.3-1.1,0c-0.299,0.3-0.299,0.8,0,1.1l3.801,3.8h-13.899
	c-0.4,0-0.802,0.4-0.802,0.801c0,0.399,0.4,0.8,0.802,0.8h13.899l-3.801,3.8c-0.299,0.3-0.299,0.8,0,1.1c0.201,0.2,0.4,0.2,0.6,0.2
	c0.201,0,0.4-0.1,0.603-0.2l5.199-5.199C1257.432,6.325,1257.432,5.725,1257.133,5.425L1257.133,5.425z"/>
<g>
	<path fill="#FFFFFF" d="M1282.304,1.904h-0.332v1.541c0,0.885-0.717,1.605-1.602,1.605c-0.884,0-1.604-0.721-1.604-1.605V1.904
		h-6.012v1.541c0,0.885-0.717,1.605-1.602,1.605c-0.886,0-1.605-0.721-1.605-1.605V1.904h-0.643c-1.166,0-2.113,0.947-2.113,2.107
		v11.877c0,1.16,0.947,2.111,2.113,2.111h13.397c1.166,0,2.111-0.951,2.111-2.111V4.012
		C1284.416,2.852,1283.47,1.904,1282.304,1.904L1282.304,1.904z M1282.785,16.041h-14.361V6.814h14.355v9.227H1282.785z"/>
	<path fill="#FFFFFF" d="M1271.162,4.33c0.486,0,0.885-0.395,0.885-0.885V0.883c0-0.482-0.397-0.883-0.885-0.883
		c-0.482,0-0.881,0.395-0.881,0.883v2.563C1270.281,3.936,1270.679,4.33,1271.162,4.33L1271.162,4.33z"/>
	<path fill="#FFFFFF" d="M1280.382,4.33c0.488,0,0.883-0.395,0.883-0.885V0.883c0-0.482-0.395-0.883-0.883-0.883
		c-0.485,0-0.881,0.395-0.881,0.883v2.563C1279.501,3.936,1279.896,4.33,1280.382,4.33L1280.382,4.33z"/>
</g>
</svg>
